<?xml version="1.0" encoding="utf-8"?>
<!-- Generator: Adobe Illustrator 27.9.0, SVG Export Plug-In . SVG Version: 6.00 Build 0)  -->
<svg version="1.1" id="Layer_1" focusable="false" xmlns="http://www.w3.org/2000/svg" xmlns:xlink="http://www.w3.org/1999/xlink"
	 x="0px" y="0px" viewBox="0 0 500 500" style="enable-background:new 0 0 500 500;" xml:space="preserve">
<style type="text/css">
	.st0{fill:#E3E3E2;}
	.st1{fill:#C7C8C9;stroke:#C7C8C9;stroke-width:8;stroke-miterlimit:10;}
</style>
<rect class="st0" width="500" height="500"/>
<path class="st1" d="M333.2,380.6H166.4c-1.7,0-2.8-1.1-2.8-2.8V166.6c0-1.7,1.1-2.8,2.8-2.8h166.8c1.7,0,2.8,1.1,2.8,2.8v211.3
	C336,379.5,334.9,380.6,333.2,380.6z M169.2,375.1h161.2V169.4H169.2V375.1z"/>
<path class="st1" d="M344.3,169.4h-189c-1.7,0-2.8-1.1-2.8-2.8v-11.1c0-1.1,0.6-2.2,1.7-2.8l94.5-33.4h1.7l94.5,33.4
	c1.1,0.6,1.7,1.7,1.7,2.8v11.1C347.1,168.3,346,169.4,344.3,169.4z M158.1,163.8h183.5v-6.1l-91.7-32.8l-91.7,32.8V163.8z
	 M266.5,380.6h-33.4c-1.7,0-2.8-1.1-2.8-2.8v-55.6c0-1.7,1.1-2.8,2.8-2.8h33.4c1.7,0,2.8,1.1,2.8,2.8v55.6
	C269.3,379.5,268.2,380.6,266.5,380.6z M235.9,375.1h27.8v-50h-27.8V375.1z M210.9,213.9h-22.2c-1.7,0-2.8-1.1-2.8-2.8v-22.2
	c0-1.7,1.1-2.8,2.8-2.8h22.2c1.7,0,2.8,1.1,2.8,2.8v22.2C213.7,212.8,212.6,213.9,210.9,213.9z M191.4,208.3h16.7v-16.7h-16.7V208.3
	z M266.5,213.9h-33.4c-1.7,0-2.8-1.1-2.8-2.8v-22.2c0-1.7,1.1-2.8,2.8-2.8h33.4c1.7,0,2.8,1.1,2.8,2.8v22.2
	C269.3,212.8,268.2,213.9,266.5,213.9z M235.9,208.3h27.8v-16.7h-27.8V208.3z M311,213.9h-22.2c-1.7,0-2.8-1.1-2.8-2.8v-22.2
	c0-1.7,1.1-2.8,2.8-2.8H311c1.7,0,2.8,1.1,2.8,2.8v22.2C313.7,212.8,312.6,213.9,311,213.9z M291.5,208.3h16.7v-16.7h-16.7V208.3z
	 M210.9,258.3h-22.2c-1.7,0-2.8-1.1-2.8-2.8v-22.2c0-1.7,1.1-2.8,2.8-2.8h22.2c1.7,0,2.8,1.1,2.8,2.8v22.2
	C213.7,257.2,212.6,258.3,210.9,258.3z M191.4,252.8h16.7v-16.7h-16.7V252.8z M266.5,258.3h-33.4c-1.7,0-2.8-1.1-2.8-2.8v-22.2
	c0-1.7,1.1-2.8,2.8-2.8h33.4c1.7,0,2.8,1.1,2.8,2.8v22.2C269.3,257.2,268.2,258.3,266.5,258.3z M235.9,252.8h27.8v-16.7h-27.8V252.8
	z M311,258.3h-22.2c-1.7,0-2.8-1.1-2.8-2.8v-22.2c0-1.7,1.1-2.8,2.8-2.8H311c1.7,0,2.8,1.1,2.8,2.8v22.2
	C313.7,257.2,312.6,258.3,311,258.3z M291.5,252.8h16.7v-16.7h-16.7V252.8z M210.9,302.8h-22.2c-1.7,0-2.8-1.1-2.8-2.8v-22.2
	c0-1.7,1.1-2.8,2.8-2.8h22.2c1.7,0,2.8,1.1,2.8,2.8V300C213.7,301.7,212.6,302.8,210.9,302.8z M191.4,297.3h16.7v-16.7h-16.7V297.3z
	 M266.5,302.8h-33.4c-1.7,0-2.8-1.1-2.8-2.8v-22.2c0-1.7,1.1-2.8,2.8-2.8h33.4c1.7,0,2.8,1.1,2.8,2.8V300
	C269.3,301.7,268.2,302.8,266.5,302.8z M235.9,297.3h27.8v-16.7h-27.8V297.3z M311,302.8h-22.2c-1.7,0-2.8-1.1-2.8-2.8v-22.2
	c0-1.7,1.1-2.8,2.8-2.8H311c1.7,0,2.8,1.1,2.8,2.8V300C313.7,301.7,312.6,302.8,311,302.8z M291.5,297.3h16.7v-16.7h-16.7V297.3z
	 M210.9,347.3h-22.2c-1.7,0-2.8-1.1-2.8-2.8v-22.2c0-1.7,1.1-2.8,2.8-2.8h22.2c1.7,0,2.8,1.1,2.8,2.8v22.2
	C213.7,346.2,212.6,347.3,210.9,347.3z M191.4,341.7h16.7v-16.7h-16.7V341.7z M311,347.3h-22.2c-1.7,0-2.8-1.1-2.8-2.8v-22.2
	c0-1.7,1.1-2.8,2.8-2.8H311c1.7,0,2.8,1.1,2.8,2.8v22.2C313.7,346.2,312.6,347.3,311,347.3z M291.5,341.7h16.7v-16.7h-16.7V341.7z"
	/>
</svg>
