<?xml version="1.0" encoding="utf-8"?>
<!-- Generator: Adobe Illustrator 27.9.0, SVG Export Plug-In . SVG Version: 6.00 Build 0)  -->
<svg version="1.1" id="Layer_1" xmlns="http://www.w3.org/2000/svg" xmlns:xlink="http://www.w3.org/1999/xlink" x="0px" y="0px"
	 viewBox="0 0 500 500" style="enable-background:new 0 0 500 500;" xml:space="preserve">
<style type="text/css">
	.st0{fill:#E3E3E2;}
	.st1{fill:#C7C8C9;}
</style>
<rect y="0" class="st0" width="500" height="500"/>
<path class="st1" d="M379.9,250c0-71.9-58-129.9-129.9-129.9s-129.9,58-129.9,129.9c0,34.2,13.5,66.9,37.4,91.3
	c24.4,25,57.7,38.6,92.5,38.6s68-13.5,92.5-38.6C366.9,316.9,379.9,284.2,379.9,250z M135.4,250c0-63,51.5-114.6,114.6-114.6
	S364.6,187,364.6,250c0,28.3-10.3,54.8-28.9,76c-11.5-6.5-27.1-12.1-44.5-18.6c-3.8-1.8-8.2-2.7-12.1-4.4v-16.8
	c5.9-3.8,14.1-13,15.9-30.9c4.4-3.2,6.5-8.8,6.5-15.9c0-5.9-2.1-11.5-5.3-14.7c2.7-8.8,7.1-23,3.8-35.3c-3.8-16.2-25-21.8-41.8-21.8
	c-14.7,0-32.1,4.4-39.2,15.3c-6.5,0-10.9,2.7-13,5.3c-8.8,9.1-4.4,26.2-1.8,35.9c-3.2,3.2-5.3,8.8-5.3,14.7c0,7.1,2.7,12.4,6.5,15.9
	c1.8,18.6,9.7,27.1,15.9,30.9v16.8c-3.8,1.2-7.7,2.7-10.9,3.8c-16.8,5.9-33.6,12.1-45.7,19.1C145.7,305.4,135.4,278.3,135.4,250z
	 M176.1,337.5c10.9-5.3,25-10.9,39.2-15.9c5.3-2.1,10.9-3.8,16.2-5.9c2.7-1.2,5-3.8,5-7.1v-26.5c0-3.2-2.1-5.9-5-7.1
	c-0.6,0-10.9-4.4-10.9-24.4c0-3.8-2.7-6.5-5.9-7.7c-0.6-1.8-0.6-5,0-6.5c3.2-0.6,5.9-3.8,5.9-7.7c0-1.8-0.6-3.2-1.2-6.5
	c-5-17.4-3.8-21.8-2.1-23.3c0.6-0.6,2.1-0.6,5.3,0c3.8,0.6,8.2-1.8,8.8-5.3c1.8-5.3,13.5-10.3,27.1-10.3c13.5,0,25.6,4.4,27.1,10.3
	c2.1,9.1-2.1,22.4-3.8,28.3c-1.2,3.2-1.8,5-1.8,7.1c0,3.8,2.7,6.5,5.9,7.7c0.6,1.8,0.6,5,0,6.5c-3.2,0.6-5.9,3.8-5.9,7.7
	c0,20-10.3,24.4-10.9,24.4c-3.2,1.2-5.3,3.8-5.3,7.1v26.5c0,3.2,2.1,5.9,5,7.1c5.9,2.1,11.5,4.4,17.4,6.5
	c14.7,5.3,28.3,10.3,38.6,15.3c-20.6,18-46.8,27.1-74.5,27.1C222.3,364.6,196.7,354.9,176.1,337.5z"/>
</svg>
