<?xml version="1.0" standalone="no"?>
<!DOCTYPE svg PUBLIC "-//W3C//DTD SVG 1.1//EN" "http://www.w3.org/Graphics/SVG/1.1/DTD/svg11.dtd">
<svg xmlns="http://www.w3.org/2000/svg">
<metadata>© Webalys 2015. Webalys Limited - Langham Place Office Tower. 8, Argyle Street. Kowloon. Hong Kong</metadata>
<defs>
<font id="directory-icon" horiz-adv-x="1000" >
<font-face font-family="directory-icon" font-weight="400" font-stretch="normal" units-per-em="1000" ascent="850" descent="-150" />
<missing-glyph horiz-adv-x="1000" />
<glyph glyph-name="bookmark" unicode="&#xe800;" d="m979 808h-479v21c0 12-9 21-21 21h-333c-12 0-21-9-21-21v-21h-104c-12 0-21-9-21-20v-917c0-12 9-21 21-21h958c12 0 21 9 21 21v917c0 11-9 20-21 20z m-812 0h291v-470l-131 131c-4 4-9 6-14 6s-11-2-15-6l-131-131v470z m791-916h-916v875h83v-479c0-9 5-16 13-20 8-3 17-1 23 5l152 152 151-152c4-4 10-6 15-6 3 0 6 0 8 1 8 4 13 11 13 20v479h458v-875z m-354 625h250c12 0 21 9 21 21s-9 20-21 20h-250c-11 0-21-9-21-20s10-21 21-21z m0-125h250c12 0 21 9 21 21s-9 20-21 20h-250c-11 0-21-9-21-20s10-21 21-21z m250-84h-250c-11 0-21-9-21-20s10-21 21-21h250c12 0 21 9 21 21s-9 20-21 20z m0-125h-708c-12 0-21-9-21-20s9-21 21-21h708c12 0 21 9 21 21s-9 20-21 20z m-166-125h-542c-12 0-21-9-21-20s9-21 21-21h542c11 0 20 9 20 21s-9 20-20 20z" horiz-adv-x="1000" />
<glyph glyph-name="calendar" unicode="&#xe801;" d="m979 767h-146v62c0 12-9 21-20 21h-125c-12 0-21-9-21-21v-62h-334v62c0 12-9 21-20 21h-125c-12 0-21-9-21-21v-62h-146c-12 0-21-10-21-21v-875c0-12 9-21 21-21h958c12 0 21 9 21 21v875c0 11-9 21-21 21z m-271 41h84v-125h-84v125z m-500 0h84v-125h-84v125z m-41-83v-62c0-12 9-21 21-21h125c11 0 20 9 20 21v62h334v-62c0-12 9-21 21-21h125c11 0 20 9 20 21v62h125v-167h-916v167h125z m-125-833v625h916v-625h-916z m854 458c11 0 21 9 21 21s-10 21-21 21h-188v62c0 12-9 21-20 21s-21-9-21-21v-62h-167v62c0 12-9 21-21 21s-21-9-21-21v-62h-166v62c0 12-10 21-21 21s-21-9-21-21v-62h-146c-11 0-21-10-21-21s10-21 21-21h146v-125h-146c-11 0-21-9-21-21s10-21 21-21h146v-125h-146c-11 0-21-9-21-20s10-21 21-21h146v-63c0-11 9-21 21-21s21 10 21 21v63h166v-63c0-11 10-21 21-21s21 10 21 21v63h167v-63c0-11 9-21 21-21s20 10 20 21v63h188c11 0 21 9 21 21s-10 20-21 20h-188v125h188c11 0 21 10 21 21s-10 21-21 21h-188v125h188z m-604 0h166v-125h-166v125z m0-292v125h166v-125h-166z m375 0h-167v125h167v-125z m0 167h-167v125h167v-125z" horiz-adv-x="1000" />
<glyph glyph-name="website" unicode="&#xe802;" d="m979 517h-74c-66 162-227 271-405 271-6 0-13-1-19-1-176-7-327-113-389-270h-71c-12 0-21-10-21-21v-292c0-11 9-21 21-21h77c69-162 228-271 401-271 176 0 337 109 405 271h75c12 0 21 10 21 21v292c0 11-9 21-21 21z m-296 0c-4 14-8 28-13 41h167c8-13 16-27 23-41h-177z m-44 0h-278c4 14 8 28 13 41h252c5-13 9-27 13-41z m169 83h-155c-21 49-50 95-85 140 95-17 180-67 240-140z m-299 146c41-46 74-95 99-146h-215c24 51 57 100 99 146 2 0 5 0 8 0 3 0 6 0 9 0z m-77-6c-35-45-64-91-85-140h-158c59 74 145 124 243 140z m-272-182h170c-4-13-9-27-12-41h-180c7 14 14 28 22 41z m168-375c4-14 9-27 14-41h-175c-8 13-16 27-23 41h184z m44 0h256c-4-14-9-27-14-41h-228c-5 14-9 27-14 41z m-175-83h163c21-47 47-95 79-141-94 15-181 66-242 141z m296-146c-35 48-64 97-88 146h190c-24-49-53-98-88-146-3 0-5 0-8 0-2 0-4 0-6 0z m68 5c32 47 58 94 79 141h166c-62-74-149-125-245-141z m274 183h-177c5 14 10 27 14 41h186c-6-14-14-28-23-41z m123 83h-916v250h916v-250z m-727 21c1 0 1 0 2 0 9 0 17 6 20 14l6 21 7-21c3-9 12-15 21-14 10 1 18 8 19 17l27 167c2 11-6 22-17 24-12 2-22-6-24-17l-13-80c-6 17-34 17-39 0l-13 80c-2 11-13 19-24 17-11-2-19-13-17-24l26-167c2-9 10-16 19-17z m251 0c1 0 1 0 2 0 9 0 17 6 20 14l6 21 7-21c3-9 11-15 21-14 10 1 18 8 19 17l27 167c2 11-6 22-17 24-12 2-22-6-24-17l-13-80c-3 8-11 14-20 14-9 0-17-6-20-15l-12 81c-2 11-13 19-24 17-12-2-19-13-17-24l26-167c2-9 9-16 19-17z m251 0c10-1 19 5 22 14l6 21 7-21c3-8 11-14 20-14 0 0 1 0 1 0 10 1 18 8 19 17l27 167c2 11-6 22-17 24-12 2-22-6-24-17l-13-80c-3 8-11 14-20 14-9 0-17-6-19-14l-13 80c-2 11-13 19-24 17-11-2-19-13-17-24l26-167c2-9 10-16 19-17z" horiz-adv-x="1000" />
<glyph glyph-name="chat" unicode="&#xe803;" d="m667 767h-334c-183 0-333-150-333-334s150-333 333-333h21v-146c0-8 5-16 13-19 3-1 5-2 8-2 5 0 11 2 15 6l160 161h117c184 0 333 150 333 333s-149 334-333 334z m0-625h-125c-6 0-11-2-15-6l-131-131v116c0 11-9 21-21 21h-42c-160 0-291 131-291 291s131 292 291 292h334c161 0 291-131 291-292s-130-291-291-291z" horiz-adv-x="1000" />
<glyph glyph-name="qr-code" unicode="&#xe804;" d="m313 850h-292c-11 0-21-9-21-21v-291c0-12 10-21 21-21h292c11 0 21 9 21 21v291c0 12-10 21-21 21z m-21-292h-250v250h250v-250z m-188 42h125c12 0 21 9 21 21v125c0 11-9 21-21 21h-125c-11 0-20-10-20-21v-125c0-12 9-21 20-21z m21 125h84v-83h-84v83z m188-542h-292c-11 0-21-9-21-20v-292c0-12 10-21 21-21h292c11 0 21 9 21 21v292c0 11-10 20-21 20z m-21-291h-250v250h250v-250z m-188 41h125c12 0 21 10 21 21v125c0 12-9 21-21 21h-125c-11 0-20-9-20-21v-125c0-11 9-21 20-21z m21 125h84v-83h-84v83z m709 105c0 11-10 20-21 20h-125c-12 0-21-9-21-20v-125c0-12 9-21 21-21h125c11 0 21 9 21 21v125z m-42-105h-83v84h83v-84z m187 792h-291c-12 0-21-9-21-21v-291c0-12 9-21 21-21h291c12 0 21 9 21 21v291c0 12-9 21-21 21z m-20-292h-250v250h250v-250z m-188 42h125c12 0 21 9 21 21v125c0 11-9 21-21 21h-125c-11 0-21-10-21-21v-125c0-12 10-21 21-21z m21 125h83v-83h-83v83z m-396-292h146c11 0 21 10 21 21s-10 21-21 21h-146c-11 0-21-9-21-21s10-21 21-21z m0-208h146c11 0 21 9 21 21s-10 21-21 21h-125v104c0 11-9 21-21 21s-21-10-21-21v-125c0-12 10-21 21-21z m-83 250h-292c-11 0-21-9-21-21s10-21 21-21h271v-62c0-12 9-21 21-21s21 9 21 21v83c0 12-10 21-21 21z m666 0h-41c-12 0-21-9-21-21v-208c0-12 9-21 21-21s20 9 20 21v187h21c12 0 21 10 21 21s-9 21-21 21z m-125-250c12 0 21 9 21 21v125c0 11-9 21-21 21s-21-10-21-21v-125c0-12 10-21 21-21z m-229 146c0-12 9-21 21-21s21 9 21 21v62h167c11 0 20 10 20 21s-9 21-20 21h-188c-12 0-21-9-21-21v-83z m-104 312c-11 0-21-9-21-20v-84c0-11 10-21 21-21h83c12 0 21 10 21 21v167c0 11-9 21-21 21s-20-10-20-21v-146h-42v63c0 11-9 20-21 20z m-125-166c12 0 21 9 21 21v125c0 11-9 20-21 20s-21-9-21-20v-125c0-12 10-21 21-21z m83 291h125c12 0 21 10 21 21s-9 21-21 21h-125c-11 0-20-9-20-21s9-21 20-21z m-83-83h83c12 0 21 9 21 21s-9 21-21 21h-62v62c0 12-9 21-21 21s-21-9-21-21v-83c0-12 10-21 21-21z m-167-417c12 0 21 10 21 21s-9 21-21 21h-125c-11 0-20-9-20-21s9-21 20-21h125z m-208-83h83c12 0 21 9 21 21s-9 21-21 21h-62v104c0 11-9 21-21 21s-21-10-21-21v-125c0-12 10-21 21-21z m958-42h-83c-11 0-21-9-21-20v-271h-354c-11 0-21-10-21-21s10-21 21-21h375c12 0 21 9 21 21v271h42v-104c0-12 9-21 20-21s21 9 21 21v125c0 11-9 20-21 20z m-437-229c0 12-9 21-21 21h-104v146c0 11-9 21-21 21s-21-10-21-21v-167c0-11 10-21 21-21h125c12 0 21 10 21 21z m62-21h209c11 0 21 10 21 21s-10 21-21 21h-188v83c0 12-9 21-21 21s-20-9-20-21v-104c0-11 9-21 20-21z m-146 230v-125c0-12 10-21 21-21s21 9 21 21v104h104c12 0 21 9 21 21s-9 20-21 20h-125c-11 0-21-9-21-20z m-145 104h-84c-11 0-20-10-20-21s9-21 20-21h84c11 0 21 9 21 21s-10 21-21 21z m229 125h-83c-12 0-21-10-21-21s9-21 21-21h83c11 0 21 9 21 21s-10 21-21 21z m187-42c-11 0-21-9-21-21v-62h-62c-12 0-21-10-21-21s9-21 21-21h125c11 0 21 9 21 21s-10 21-21 21h-21v62c0 12-9 21-21 21z" horiz-adv-x="1000" />
<glyph glyph-name="sticky-note" unicode="&#xe805;" d="m958 163v541c0 58-46 104-104 104h-708c-58 0-104-46-104-104v-666c0-58 46-105 104-105h604c6 0 12 3 16 7l187 209c1 1 1 2 2 3 1 1 1 2 2 3 1 2 1 5 1 8z m-875-125v666c0 35 28 63 63 63h708c35 0 63-28 63-63v-521h-188c-11 0-21-9-21-20v-188h-562c-35 0-63 28-63 63z m667-53v157h141l-141-157z m-125 198h-292v167h500c12 0 21 9 21 21s-9 21-21 21h-500v166h500c12 0 21 10 21 21s-9 21-21 21h-500v83c0 12-9 21-20 21s-21-9-21-21v-83h-125c-12 0-21-9-21-21s9-21 21-21h125v-166h-125c-12 0-21-10-21-21s9-21 21-21h125v-167h-125c-12 0-21-9-21-20s9-21 21-21h125v-84c0-11 9-20 21-20s20 9 20 20v84h292c12 0 21 9 21 21s-9 20-21 20z" horiz-adv-x="1000" />
<glyph glyph-name="map-pin" unicode="&#xe806;" d="m479 850c-225 0-396-179-396-417 0-298 368-568 384-579 4-3 8-4 12-4s9 1 12 4c16 11 384 281 384 579 0 238-170 417-396 417z m0-953c-63 49-354 288-354 536 0 214 152 375 354 375s354-161 354-375c0-248-290-487-354-536z m0 786c-126 0-229-102-229-229s103-229 229-229 229 103 229 229-102 229-229 229z m0-416c-103 0-187 84-187 187s84 188 187 188 188-84 188-188-84-187-188-187z" horiz-adv-x="1000" />
<glyph glyph-name="email" unicode="&#xe807;" d="m875 683h-750c-46 0-83-37-83-83v-458c0-46 37-84 83-84h750c46 0 83 38 83 84v458c0 46-37 83-83 83z m0-41c2 0 4-1 7-2l-382-305-382 305c3 1 5 2 7 2h750z m42-500c0-23-19-42-42-42h-750c-23 0-42 19-42 42v458c0 5 2 9 3 13l401-321c4-3 8-4 13-4s9 1 13 4l401 321c1-4 3-8 3-13v-458z" horiz-adv-x="1000" />
<glyph glyph-name="hierarchy" unicode="&#xe808;" d="m979 100h-104v229c0 12-9 21-21 21h-354v250h313c11 0 20 9 20 21v167c0 11-9 20-20 20h-625c-12 0-21-9-21-20v-167c0-12 9-21 21-21h270v-250h-312c-12 0-21-9-21-21v-229h-104c-12 0-21-9-21-21v-208c0-12 9-21 21-21h208c12 0 21 9 21 21v208c0 12-9 21-21 21h-62v208h291v-208h-62c-12 0-21-9-21-21v-208c0-12 9-21 21-21h208c12 0 21 9 21 21v208c0 12-9 21-21 21h-104v208h333v-208h-62c-12 0-21-9-21-21v-208c0-12 9-21 21-21h208c12 0 21 9 21 21v208c0 12-9 21-21 21z m-771 542v125h584v-125h-292-42-250z m0-584v-166h-166v166h83 42 41z m375 0v-166h-166v166h41 42 83z m375-166h-166v166h41 42 83v-166z" horiz-adv-x="1000" />
<glyph glyph-name="link" unicode="&#xe809;" d="m397 394c31 32 86 32 118 0l29-29c16-17 43-17 59 0 16 16 16 42 0 59l-29 29c-32 32-74 49-118 49s-87-17-118-49l-192-191c-65-65-65-171 0-236l30-30c31-31 73-48 118-48 44 0 86 17 118 48l90 91c16 16 16 43 0 59-16 16-43 16-59 0l-90-91c-32-31-87-31-118 0l-30 30c-32 32-32 85 0 118l192 191z m265-147l192 191c31 32 48 74 48 118 0 45-17 87-48 118l-30 30c-31 31-73 48-118 48s-86-17-118-48l-82-83c-17-16-17-43 0-59 16-16 42-16 59 0l82 83c16 15 37 24 59 24s43-9 59-24l30-30c15-16 24-36 24-59 0-22-9-43-24-59l-192-191c-31-32-86-32-118 0-16 16-42 16-59 0-16-16-16-43 0-59 32-32 74-49 118-49 45 0 87 17 118 49z" horiz-adv-x="1000" />
<glyph glyph-name="trash" unicode="&#xe80a;" d="m958 725h-145-146v104c0 12-10 21-21 21h-333c-12 0-21-9-21-21v-104h-146-104c-12 0-21-9-21-21s9-21 21-21h83v-812c0-12 9-21 21-21h667c11 0 20 9 20 21v812h125c12 0 21 10 21 21s-9 21-21 21z m-625 83h292v-83h-292v83z m459-916h-625v791h146 333 146v-791z m-479 687c-12 0-21-9-21-21v-500c0-11 9-20 21-20s20 9 20 20v500c0 12-9 21-20 21z m166 0c-11 0-21-9-21-21v-500c0-11 10-20 21-20s21 9 21 20v500c0 12-9 21-21 21z m146-21v-500c0-11 9-20 21-20s21 9 21 20v500c0 12-10 21-21 21s-21-9-21-21z" horiz-adv-x="1000" />
<glyph glyph-name="phone" unicode="&#xe80b;" d="m924 120l-102 102c-44 45-122 45-166 0l-21-20c-101 84-198 182-283 283l21 21c45 46 45 120 0 166l-103 102c-44 44-121 44-166 0l-56-56c-55-55-64-143-20-208 164-249 383-468 632-633 27-18 59-27 91-27 44 0 86 17 117 48l56 56c22 23 34 52 34 83 0 32-12 61-34 83z m-29-136l-56-56c-41-41-108-47-156-16-244 162-459 376-621 621-32 49-25 114 16 156l56 56c14 14 33 22 53 22s40-8 54-22l102-103c30-29 29-77 0-106l-34-35c-8-7-8-19-1-27 93-114 202-223 316-316 8-7 20-7 27 1l35 34c28 29 78 29 106 0l103-102c14-14 22-33 22-54s-8-39-22-53z" horiz-adv-x="1000" />
<glyph glyph-name="print" unicode="&#xe80c;" d="m896 558h-792c-57 0-104-46-104-104v-250c0-57 47-104 104-104h104v-188c0-11 10-20 21-20h542c11 0 21 9 21 20v188h104c57 0 104 47 104 104v250c0 58-47 104-104 104z m-146-625h-500v292h500v-292z m208 271c0-34-28-62-62-62h-104v104c0 11-10 21-21 21h-542c-11 0-21-10-21-21v-104h-104c-34 0-62 28-62 62v250c0 35 28 63 62 63h792c34 0 62-28 62-63v-250z m-729 396c12 0 21 9 21 21v146h375v-104c0-12 9-21 21-21h104v-21c0-12 9-21 21-21s21 9 21 21v42c0 2-1 5-2 8-1 2-2 4-4 6l-125 125c-2 2-5 4-7 5-3 1-5 1-8 1h-417c-11 0-21-9-21-20v-167c0-12 10-21 21-21z m438 137l54-54h-54v54z m-521-262c-35 0-63-28-63-62s28-63 63-63 62 28 62 63-28 62-62 62z m0-83c-12 0-21 9-21 21 0 11 9 20 21 20s21-9 21-20c0-12-10-21-21-21z m542-209h-375c-12 0-21-9-21-20s9-21 21-21h375c11 0 20 9 20 21s-9 20-20 20z m0-83h-375c-12 0-21-9-21-21s9-21 21-21h375c11 0 20 10 20 21s-9 21-20 21z m0-83h-375c-12 0-21-10-21-21s9-21 21-21h375c11 0 20 9 20 21s-9 21-20 21z" horiz-adv-x="1000" />
<glyph glyph-name="down-arrow" unicode="&#xe80d;" d="m500-150c-5 0-11 2-15 6l-455 455c-4 4-6 9-6 15s2 11 6 15l144 143c8 8 21 9 29 1l172-159v503c0 12 9 21 21 21h208c12 0 21-9 21-21v-503l172 159c9 8 21 7 29-1l144-143c8-8 8-22 0-30l-455-455c-4-4-10-6-15-6z m-426 476l426-426 426 426-115 115-193-178c-6-5-15-7-22-3-8 3-13 11-13 19v529h-166v-530c0-8-5-16-13-19s-16-2-22 4l-193 178-115-115z" horiz-adv-x="1000" />
<glyph glyph-name="newspaper" unicode="&#xe80e;" d="m604 725h-458c-12 0-21-9-21-21s9-21 21-21h458c12 0 21 10 21 21s-9 21-21 21z m-458-417h208c12 0 21 10 21 21v250c0 12-9 21-21 21h-208c-12 0-21-9-21-21v-250c0-11 9-21 21-21z m21 250h166v-208h-166v208z m437-41h-125c-11 0-21-10-21-21s10-21 21-21h125c12 0 21 9 21 21s-9 21-21 21z m0-84h-166c-12 0-21-9-21-20s9-21 21-21h166c12 0 21 9 21 21s-9 20-21 20z m0-83h-166c-12 0-21-9-21-21s9-21 21-21h166c12 0 21 10 21 21s-9 21-21 21z m0-83h-458c-12 0-21-10-21-21s9-21 21-21h458c12 0 21 9 21 21s-9 21-21 21z m0-84h-458c-12 0-21-9-21-20s9-21 21-21h458c12 0 21 9 21 21s-9 20-21 20z m0-83h-458c-12 0-21-9-21-21s9-21 21-21h458c12 0 21 10 21 21s-9 21-21 21z m375 625h-146v42c0 11-9 21-20 21h-63v41c0 12-9 21-21 21h-708c-12 0-21-9-21-21v-833c0-81 65-146 146-146h708c81 0 146 65 146 146v708c0 12-9 21-21 21z m-146-125h42v-604c0-12-9-21-21-21s-21 9-21 21v604z m-687-708c-58 0-104 46-104 104v812h666v-41-84-687c0-41 17-78 44-104h-606z m812 104c0-58-46-104-104-104s-104 46-104 104v687 63h42v-750c0-35 28-63 62-63s63 28 63 63v625c0 11-10 21-21 21h-63v41h125v-687z" horiz-adv-x="1000" />
<glyph glyph-name="help" unicode="&#xe80f;" d="m479 808c-264 0-479-215-479-479s215-479 479-479 479 215 479 479-215 479-479 479z m0-916c-241 0-437 196-437 437s196 438 437 438 438-197 438-438-197-437-438-437z m146 541c0-73-54-134-125-144v-106c0-11-9-20-21-20s-21 9-21 20v125c0 12 10 21 21 21 58 0 104 47 104 104s-46 105-104 105-104-47-104-105c0-11-9-20-21-20s-21 9-21 20c0 81 66 146 146 146s146-65 146-146z m-104-354c0-23-19-41-42-41s-41 18-41 41 18 42 41 42 42-19 42-42z" horiz-adv-x="1000" />
<glyph glyph-name="vcard" unicode="&#xe810;" d="m979 642h-791c-12 0-21-10-21-21v-583c0-12 9-21 21-21h166c12 0 21 9 21 21v31c0 29 23 52 52 52s52-23 52-52v-31c0-12 10-21 21-21h167c11 0 21 9 21 21v31c0 29 23 52 52 52s52-23 52-52v-31c0-12 9-21 21-21h166c12 0 21 9 21 21v583c0 11-9 21-21 21z m-21-584h-125v11c0 52-42 94-93 94s-94-42-94-94v-11h-125v11c0 52-42 94-94 94s-94-42-94-94v-11h-125v542h750v-542z m-645 166h250c11 0 20 10 20 21 0 55-28 112-83 137 13 14 21 33 21 54 0 46-37 84-83 84s-84-38-84-84c0-21 8-40 21-54-54-25-83-82-83-137 0-11 9-21 21-21z m125 254c23 0 41-19 41-42 0-22-18-41-41-41 0 0 0 0 0 0s-1 0-1 0c-23 0-41 19-41 41 0 23 19 42 42 42z m-2-125c1 0 1 0 2 0s1 0 1 0c64-1 93-47 101-87h-205c8 40 37 86 101 87z m-394-128h83v-42h-104c-12 0-21 10-21 21v584c0 11 9 20 21 20h792c11 0 20-9 20-20v-84h-41v63h-750v-542z m729 208h-104v42h104v-42z m104-166h-208v41h208v-41z m0 83h-208v42h208v-42z" horiz-adv-x="1000" />
<glyph glyph-name="building" unicode="&#xe811;" d="m979 350h-162l-25 10v136c0 154-120 280-271 291v42c0 12-9 21-21 21s-21-9-21-21v-42c-151-11-271-137-271-291v-136l-24-10h-163c-12 0-21-9-21-21v-333c0-12 9-21 21-21h146v-104c0-12 9-21 21-21h625c11 0 20 9 20 21v104h146c12 0 21 9 21 21v333c0 12-9 21-21 21z m-396-375v250h84v-250h-84z m-125 0v250h84v-250h-84z m-125 0v250h84v-250h-84z m-125 0v250h84v-250h-84z m292 457l292-117v-48h-584v48l292 117z m208-207h84v-250h-84v250z m-200 249c-3 1-5 1-8 1h250v-98l-242 97z m-8 272c131 0 238-101 249-229h-498c11 128 118 229 249 229z m-250-271h250c-3 0-5 0-8-1l-242-97v98z m-208-458v291h125v-291h-125z m166-125v41h584v-41h-584z m750 125h-125v291h125v-291z" horiz-adv-x="1000" />
<glyph glyph-name="pencil" unicode="&#xe812;" d="m956 736l-70 70c-40 40-107 40-147 0l-66-66 0 0 0 0-63-63-500-500c-2-2-3-5-4-8-1 0-1 0-1 0l-83-271c-2-8 0-16 5-21 4-4 9-6 15-6 2 0 4 0 6 1l271 83c0 0 0 0 0 0 3 1 6 3 8 5l500 500 129 129c19 19 30 46 30 74 0 27-11 54-30 73z m-143-231l-158 158 33 33 158-158-33-33z m-638-551l-70 71 30 98 17-17c4-4 9-6 15-6h83v-83c0-6 2-11 6-15l17-17-98-31z m87 188h-87l-20 21 470 470 64-64-427-427z m-171-162l39-39-57-18 18 57z m222 25l-21 20v87l427 427 64-64-470-470z m613 613l-51-51-158 158 51 51c25 25 64 25 89 0l69-69c12-12 19-28 19-44 0-17-7-33-19-45z" horiz-adv-x="1000" />
<glyph glyph-name="employees" unicode="&#xe813;" d="m229 475h-208c-12 0-21-9-21-21v-125c0-45 14-72 42-80v-170c0-11 9-21 21-21h125c11 0 20 10 20 21v170c28 8 42 35 42 80v125c0 12-9 21-21 21z m-21-146c0-41-11-41-20-41-12 0-21-10-21-21v-167h-84v167c0 11-9 21-20 21-10 0-21 0-21 41v104h166v-104z m771 146h-208c-12 0-21-9-21-21v-125c0-45 14-72 42-80v-170c0-11 9-21 21-21h125c11 0 20 10 20 21v170c28 8 42 35 42 80v125c0 12-9 21-21 21z m-21-146c0-41-11-41-20-41-12 0-21-10-21-21v-167h-84v167c0 11-9 21-20 21-10 0-21 0-21 41v104h166v-104z m-312 146h-292c-11 0-21-9-21-21v-208c0-50 36-92 84-102v-232c0-11 9-20 21-20h125c11 0 20 9 20 20v232c48 9 84 52 84 102v208c0 12-10 21-21 21z m-21-229c0-35-28-63-62-63-12 0-21-9-21-20v-230h-84v230c0 11-9 20-20 20-35 0-63 28-63 63v187h250v-187z m-500 271c46 0 83 37 83 83 0 46-37 83-83 83s-83-37-83-83c0-46 37-83 83-83z m0 125c23 0 42-19 42-42 0-23-19-42-42-42s-42 19-42 42c0 23 19 42 42 42z m750-125c46 0 83 37 83 83 0 46-37 83-83 83s-83-37-83-83c0-46 37-83 83-83z m0 125c23 0 42-19 42-42 0-23-19-42-42-42s-42 19-42 42c0 23 19 42 42 42z m-375-125c69 0 125 56 125 125s-56 125-125 125-125-56-125-125 56-125 125-125z m0 208c46 0 83-37 83-83 0-46-37-84-83-84s-83 38-83 84c0 46 37 83 83 83z" horiz-adv-x="1000" />
<glyph glyph-name="phone-book" unicode="&#xe814;" d="m614 26c17-11 36-16 55-16 27 0 52 10 71 29l30 30c14 14 22 33 22 52s-8 38-22 52l-56 56c-27 28-76 28-103 0l-5-5c-51 42-99 91-142 141l5 5c14 14 22 33 22 52 0 20-8 38-22 52l-55 56c-28 28-77 28-104 0l-31-31c-33-33-38-86-12-125 90-137 210-257 347-348z m-305 444l30 30c6 6 14 10 23 10 8 0 16-4 22-10l56-55c6-6 9-14 9-23 0-8-3-16-9-22l-19-19c-7-7-8-19-1-28 51-62 111-123 174-173 8-7 20-7 28 1l18 19c12 12 33 11 45 0l56-56c6-6 9-14 9-23s-3-16-9-22l-31-31c-19-19-50-22-73-7-132 88-248 204-336 336-15 23-12 53 8 73z m587 213h-708c-35 0-63 28-63 63s28 62 63 62h708c11 0 21 10 21 21s-10 21-21 21h-708c-58 0-105-47-105-104 0-5 1-10 1-15 0-2-1-4-1-6v-167h-20c-12 0-21-9-21-20s9-21 21-21h20v-84h-20c-12 0-21-9-21-20s9-21 21-21h20v-84h-20c-12 0-21-9-21-20s9-21 21-21h20v-84h-20c-12 0-21-9-21-20s9-21 21-21h20v-84h-20c-12 0-21-9-21-20s9-21 21-21h20v-63c0-57 47-104 105-104h708c11 0 21 9 21 21v792c0 11-10 20-21 20z m-21-791h-687c-35 0-63 28-63 62v63h21c11 0 21 9 21 21s-10 20-21 20h-21v84h21c11 0 21 9 21 21s-10 20-21 20h-21v84h21c11 0 21 9 21 21s-10 20-21 20h-21v84h21c11 0 21 9 21 21s-10 20-21 20h-21v84h21c11 0 21 9 21 21s-10 20-21 20h-21v105c17-13 39-21 63-21h687v-750z m-687 875c-12 0-21-10-21-21s9-21 21-21h666c12 0 21 9 21 21s-9 21-21 21h-666z" horiz-adv-x="1000" />
<glyph glyph-name="academic-cap" unicode="&#xe815;" d="m991 448l-483 250c-5 3-11 3-16 0l-483-250c-5-3-9-8-9-15s4-12 9-14l158-82v-172c-38-8-67-41-67-82 0-46 37-83 83-83 46 0 84 37 84 83 0 41-29 74-67 82v155l292-151c3-2 5-2 8-2 3 0 5 0 8 2l292 151v-70c0-78-117-192-300-192-46 0-92 7-143 20-8 3-18-2-20-11-3-9 3-18 12-21 53-14 102-21 151-21 207 0 333 131 333 225v87l158 82c6 2 9 8 9 14s-3 12-9 15z m-758-365c0-27-22-50-50-50s-50 23-50 50 23 50 50 50 50-22 50-50z m267 119l-274 142 278 73c9 3 15 12 12 21-2 9-11 14-20 12l-314-83-129 66 447 232 447-232-447-231z" horiz-adv-x="1000" />
<glyph glyph-name="business-chart" unicode="&#xe816;" d="m983-117h-50v617c0 9-7 17-16 17h-134c-9 0-16-8-16-17v-617h-67v317c0 9-7 17-17 17h-133c-9 0-17-8-17-17v-317h-66v417c0 9-8 17-17 17h-133c-9 0-17-8-17-17v-417h-67v184c0 9-7 16-16 16h-134c-9 0-16-7-16-16v-184h-50c-10 0-17-7-17-16 0-10 8-17 17-17h66 134 100 133 100 133 100 134 66c10 0 17 7 17 17 0 9-7 16-17 16z m-883 0v167h100v-167h-100z m233 0v400h100v-400h-100z m234 0v300h100v-300h-100z m233 0v600h100v-600h-100z m-417 767c-36 0-66-30-66-67 0-10 2-20 7-29l-153-132c-11 7-24 11-38 11-36 0-66-30-66-66 0-37 30-67 66-67 37 0 67 30 67 67 0 10-3 20-7 29l153 133c10-8 23-12 37-12 22 0 42 11 54 27l131-52c-1-3-1-6-1-9 0-36 30-66 66-66 37 0 67 30 67 66 0 15-5 28-13 39l168 201c9-4 18-6 28-6 37 0 67 30 67 66 0 37-30 67-67 67-36 0-66-30-66-67 0-14 4-27 12-38l-167-202c-9 5-18 7-29 7-22 0-41-11-53-27l-131 52c1 3 1 6 1 8 0 37-30 67-67 67z m500 167c19 0 34-15 34-34s-15-33-34-33c-18 0-33 15-33 33s15 34 33 34z m-250-300c8 0 16-3 22-8 0 0 0 0 0 0 0 0 0 0 0 0 7-6 12-15 12-26 0-18-15-33-34-33-18 0-33 15-33 33s15 34 33 34z m-500-184c-18 0-33 15-33 34s15 33 33 33c10 0 19-5 25-12 0 0 0 0 0 0 0 0 0 0 0 0 6-5 9-13 9-21 0-19-15-34-34-34z m250 217c-18 0-33 15-33 33s15 34 33 34c19 0 34-15 34-34s-15-33-34-33z" horiz-adv-x="1000" />
<glyph glyph-name="chat-user" unicode="&#xe817;" d="m667-67c0 47-31 87-80 104l-154 58v72h-2c48 38 79 103 79 175 0 118-82 214-182 214-101 0-183-96-183-214 0-77 35-145 88-182v-65l-157-58c-47-17-76-56-76-104v-83h667v83z m-339 590c73 0 133-64 146-148 0 0 0 0 0 0-49-9-78 6-107 55l-15 27-14-27c-15-29-67-55-110-55-17 0-31 3-46 9 16 79 75 139 146 139z m-150-181c0 3 1 5 1 8 15-5 31-8 49-8 46 0 96 22 124 51 26-36 58-54 97-54 9 0 18 1 28 3 0-99-67-180-149-180-83 0-150 81-150 180z m455-459h-600v50c0 33 21 60 55 73l179 66v69c19-8 39-12 61-12 25 0 50 6 72 18v-75l176-66c35-13 57-41 57-73v-50z m-70 677c23 0 42 19 42 42 0 23-19 42-42 42s-42-19-42-42c0-23 19-42 42-42z m0 51c5 0 9-4 9-9 0-5-4-8-9-8-5 0-9 3-9 8 0 5 4 9 9 9z m238-398c0 45-36 81-81 81-44 0-80-36-80-81 0-44 36-80 80-80 45 0 81 36 81 80z m-127 0c0 26 21 47 46 47 26 0 47-21 47-47s-21-46-47-46c-25 0-46 21-46 46z m-111-96c24 0 44 20 44 44s-20 44-44 44-44-20-44-44 19-44 44-44z m0 55c6 0 11-5 11-11 0-6-5-11-11-11-6 0-11 5-11 11 0 6 5 11 11 11z m168 430c0 23-19 42-42 42-23 0-42-19-42-42 0-23 19-42 42-42 23 0 42 19 42 42z m-51 0c0 5 4 9 9 9s9-4 9-9c0-5-4-8-9-8s-9 3-9 8z m177 0c0 23-19 42-42 42-23 0-42-19-42-42 0-23 19-42 42-42 23 0 42 19 42 42z m-51 0c0 5 4 9 9 9s9-4 9-9c0-5-4-8-9-8s-9 3-9 8z m-37 248c-57 0-104-19-147-60-53 23-112 22-165-2-58-27-101-78-115-138l32-8c12 50 48 93 97 115 48 23 100 22 147-2l11-5 9 9c39 40 79 58 131 58 130 0 198-102 198-202 0-50-17-95-47-128-35-37-86-57-147-57h-9l-5-8c-18-26-52-55-91-55-39 0-74 20-90 54l-30-15c22-45 68-73 120-73 42 0 84 24 114 64 67 1 123 25 162 67 36 39 56 93 56 151 0 114-81 235-231 235z" horiz-adv-x="1000" />
<glyph glyph-name="document" unicode="&#xe818;" d="m150-150h700c9 0 17 7 17 17v733c0 2-1 4-2 6 0 2-2 4-3 6 0 0 0 0 0 0l-230 227c-2 7-8 11-15 11-1 0-1 0-1 0-1 0-1 0-1 0h-465c-9 0-17-7-17-17v-966c0-10 8-17 17-17z m483 941l177-174h-177v174z m-466 26h433v-217c0-9 8-17 17-17h216v-700h-666v934z m153-300h189c10 0 17 7 17 16s-7 17-17 17h-189c-9 0-16-7-16-17s7-16 16-16z m379-100h-379c-9 0-16-8-16-17s7-17 16-17h379c9 0 16 8 16 17s-7 17-16 17z m0-134h-379c-9 0-16-7-16-16s7-17 16-17h379c9 0 16 8 16 17s-7 16-16 16z m0-133h-379c-9 0-16-7-16-17s7-16 16-16h379c9 0 16 7 16 16s-7 17-16 17z m0-133h-379c-9 0-16-8-16-17s7-17 16-17h379c9 0 16 8 16 17s-7 17-16 17z" horiz-adv-x="1000" />
<glyph glyph-name="keynote" unicode="&#xe819;" d="m997 244l-199 364c-3 5-9 9-15 9h-483v183c0 9 8 17 17 17h16c14 0 36-9 46-19l14-14c-6-10-10-22-10-34 0-37 30-67 67-67 37 0 67 30 67 67 0 37-30 67-67 67-12 0-24-4-34-10l-14 15c-16 16-46 28-69 28h-16c-28 0-50-22-50-50v-183h-34c-6 0-11-3-14-8l-217-367c0-1 0-1 0-1 0-1-1-1-1-2 0-2-1-4-1-6 0 0 0 0 0 0v-100c0-9 8-16 17-16h466v-234h-66c-9 0-17-7-17-16s8-17 17-17h166c10 0 17 7 17 17s-7 16-17 16h-66v234h466c10 0 17 7 17 16v99c0 0 0 1 0 1 0 4-1 8-3 11z m-514 506c0-18-15-33-33-33s-33 15-33 33c0 9 3 18 9 24 0 0 1 0 1 0s0 0 0 0c6 6 14 9 23 9 18 0 33-15 33-33z m-240-167h24v-50c0-9 7-16 16-16s17 7 17 16v50h473l182-333h-909l197 333z m724-433h-934v67h934v-67z m-136 193l-82 197c-3 6-9 10-16 10h-333c-8 0-14-5-16-13l-50-200c-1-5 0-10 3-14 3-4 8-6 13-6h467c0 0 0 0 0 0 9 0 17 7 17 16 0 4-1 7-3 10z m-460 7l42 167h309l70-167h-421z" horiz-adv-x="1000" />
<glyph glyph-name="bookmark-star" unicode="&#xe81a;" d="m850 850h-700c-9 0-17-7-17-17v-966c0-7 4-12 9-15 3-1 5-2 8-2 3 0 7 1 9 3l334 225 348-225c5-4 12-4 17-1 5 3 9 9 9 15v966c0 10-8 17-17 17z m-17-953l-331 215c-3 2-6 3-9 3-3 0-7-1-10-3l-316-214v919h666v-920z m-468 514l-31-158c-2-6 1-13 7-17 3-2 6-3 9-3 3 0 7 1 10 3l133 94 131-94c5-3 13-4 18 0 6 4 9 11 8 17l-32 158 111 111c4 4 6 12 3 18-2 6-9 10-15 10h-156l-53 122c-3 6-8 10-15 10-7 0-13-4-15-10l-55-122h-156c-7 0-13-4-16-10-2-6-1-14 4-18l110-111z m68 106c7 0 13 4 16 10l44 97 42-97c2-6 8-10 15-10h126l-88-89c-4-3-5-9-4-15l25-125-107 76c-5 4-13 4-19 0l-108-76 25 125c1 6-1 12-5 15l-88 89h126z" horiz-adv-x="1000" />
<glyph glyph-name="column" unicode="&#xe81b;" d="m692-152c-5 0-9 4-9 9v675h-111v-675c0-5-4-9-9-9s-8 4-8 9v675h-112v-675c0-5-3-9-8-9s-8 4-8 9v675h-110v-675c0-5-4-9-9-9s-8 4-8 9v675h-23c-25-25-59-40-97-40-99 0-180 80-180 178 0 98 81 180 180 182h640c99 0 180-81 180-180s-81-180-180-180c-38 0-72 15-96 40h-24v-675c0-5-4-9-8-9z m85 857c-43 0-77-34-77-77 0-66 54-120 120-120 90 0 163 74 163 164s-73 163-163 163h-640c-90-2-163-76-163-165 0-89 73-162 163-162 66 0 120 54 120 120 0 43-34 77-77 77-19 0-35-15-35-35 0-5-3-8-8-8s-8 3-8 8c0 29 22 52 51 52 50 0 90-39 93-87h368c3 48 43 87 93 87 29 0 51-23 51-52 0-5-3-8-8-8s-8 3-8 8c0 20-16 35-35 35z m-486-157h418c-14 20-23 44-25 70h-368c-2-26-11-50-25-70z" horiz-adv-x="1000" />
</font>
</defs>
</svg>
