<svg baseProfile="tiny" xmlns="http://www.w3.org/2000/svg" viewBox="0 0 60 60"><g stroke="#000" stroke-linejoin="round" stroke-miterlimit="10" fill="none"><path stroke-linecap="round" d="M49.2 10.8c0-1.4-1.1-2.6-2.6-2.6-2.8 0-5.1 2.3-5.1 5.1 0 4.2 3.4 7.7 7.7 7.7 5.7 0 10.3-4.6 10.3-10.3 0-5.7-4.6-10.3-10.3-10.3h-38.4c-5.7.1-10.3 4.7-10.3 10.4 0 5.6 4.6 10.2 10.3 10.2 4.2 0 7.7-3.4 7.7-7.7 0-2.8-2.3-5.1-5.1-5.1-1.4 0-2.6 1.1-2.6 2.6"/><line stroke-linecap="round" x1="18.5" y1="18.5" x2="18.5" y2="59.5"/><line stroke-linecap="round" x1="41.5" y1="18.5" x2="41.5" y2="59.5"/><line stroke-linecap="round" x1="26.1" y1="18.5" x2="26.1" y2="59.5"/><line stroke-linecap="round" x1="33.8" y1="18.5" x2="33.8" y2="59.5"/><line x1="16.4" y1="18.5" x2="43.5" y2="18.5"/><line stroke-linecap="round" x1="18.5" y1="13.3" x2="41.5" y2="13.3"/></g></svg>